# 3ds Max Wavefront OBJ Exporter v0.99 - (c)2007 guruware
# ŽŽœšµÄÎÄŒþ:29.05.2025 18:44:12

mtllib 444.mtl

#
# object Box002
#

v  -12.8552 69.8663 11.5370
v  -12.8552 69.8663 -11.5370
v  12.8552 69.8663 -11.5370
v  12.8552 69.8663 11.5370
v  -12.8552 95.5767 11.5370
v  12.8552 95.5767 11.5370
v  12.8552 95.5767 -11.5370
v  -12.8552 95.5767 -11.5370
v  -14.6080 57.8743 -6.8674
v  14.6197 57.8743 -6.8674
v  14.6197 32.1136 -6.8674
v  0.0058 32.1136 -6.8674
v  -14.6080 32.1136 -6.8674
v  14.6197 32.1136 6.5480
v  14.6197 57.8743 6.5480
v  -14.6080 57.8743 6.5480
v  0.0058 32.1136 6.5480
v  -14.6080 32.1136 6.5480
v  0.0058 0.0255 -6.8674
v  0.0058 0.0255 6.5480
v  -14.6080 0.0255 6.5480
v  -14.6080 0.0255 -6.8674
v  14.6197 69.8663 -6.8674
v  -14.6080 69.8663 -6.8674
v  -14.6080 69.8663 6.5480
v  14.6197 69.8663 6.5480
v  -26.5862 57.8743 -6.8674
v  -26.5862 57.8743 6.5480
v  -26.5862 69.8664 6.5480
v  -26.5862 69.8664 -6.8674
v  26.5979 69.8664 -6.8674
v  26.5979 69.8664 6.5480
v  26.5979 57.8743 6.5480
v  26.5979 57.8743 -6.8674
v  -14.6080 57.8743 37.1313
v  -14.6080 69.8663 37.1313
v  -26.5862 69.8663 37.1313
v  -26.5862 57.8743 37.1313
v  14.6197 69.8663 37.1313
v  14.6197 57.8743 37.1313
v  26.5979 57.8743 37.1313
v  26.5979 69.8663 37.1313
v  14.6197 0.0255 -6.8674
v  14.6197 0.0255 6.5480
# 44 vertices

vn 0.0000 -1.0000 -0.0000
vn 0.0000 1.0000 -0.0000
vn 0.0000 0.0000 1.0000
vn 1.0000 0.0000 -0.0000
vn 0.0000 0.0000 -1.0000
vn -1.0000 0.0000 -0.0000
vn 0.0000 -0.0000 1.0000
vn 1.0000 0.0000 0.0000
vn -1.0000 0.0000 0.0000
vn -0.0000 -1.0000 -0.0000
vn -0.0000 0.0000 -1.0000
vn -0.0000 1.0000 -0.0000
vn 1.0000 -0.0000 -0.0000
vn 0.0000 1.0000 0.0000
vn -1.0000 -0.0000 -0.0000
vn -0.0000 1.0000 0.0000
# 16 vertex normals

vt 1.0000 0.0000 0.0000
vt 1.0000 1.0000 0.0000
vt 0.0000 1.0000 0.0000
vt 0.0000 0.0000 0.0000
vt 1.0000 0.5000 0.0000
vt 0.0000 0.5000 0.0000
vt 0.5000 0.0000 0.0000
vt 0.5000 1.0000 0.0000
# 8 texture coords

o Box002
g Box002
usemtl Material__63
s 2
f 1/1/1 2/2/1 3/3/1 
f 3/3/1 4/4/1 1/1/1 
s 4
f 5/4/2 6/1/2 7/2/2 
f 7/2/2 8/3/2 5/4/2 
s 8
f 1/4/3 4/1/3 6/2/3 
f 6/2/3 5/3/3 1/4/3 
s 16
f 4/4/4 3/1/4 7/2/4 
f 7/2/4 6/3/4 4/4/4 
s 32
f 3/4/5 2/1/5 8/2/5 
f 8/2/5 7/3/5 3/4/5 
s 64
f 2/4/6 1/1/6 5/2/6 
f 5/2/6 8/3/6 2/4/6 
s 2
f 9/5/5 10/6/5 11/4/5 
f 9/5/5 11/4/5 12/7/5 
f 13/1/5 9/5/5 12/7/5 
s 4
f 14/1/3 15/5/7 16/6/7 
f 17/7/3 14/1/3 16/6/7 
f 18/4/3 17/7/3 16/6/7 
s 8
f 19/7/1 20/8/1 21/3/1 
f 21/3/1 22/4/1 19/7/1 
s 16
f 10/7/8 15/8/8 14/3/8 
f 14/3/8 11/4/4 10/7/8 
s 32
f 23/4/2 24/1/2 25/2/2 
f 25/2/2 26/3/2 23/4/2 
s 64
f 27/7/6 28/8/6 29/3/6 
f 29/3/6 30/4/6 27/7/6 
s 2
f 24/2/5 23/3/5 10/6/5 
f 10/6/5 9/5/5 24/2/5 
s 4
f 26/2/7 25/3/7 16/6/7 
f 16/6/7 15/5/7 26/2/7 
s 16
f 31/1/4 32/2/4 33/8/4 
f 33/8/4 34/7/4 31/1/4 
s 64
f 13/1/9 18/2/6 16/8/9 
f 16/8/9 9/7/9 13/1/9 
s off
f 35/8/3 36/3/3 37/3/3 
f 37/3/3 38/8/3 35/8/3 
f 25/3/2 24/4/2 30/4/2 
f 30/4/2 29/3/2 25/3/2 
f 24/4/5 9/7/5 27/7/5 
f 27/7/5 30/4/5 24/4/5 
f 9/7/10 16/8/10 28/8/10 
f 28/8/10 27/7/10 9/7/10 
f 10/7/11 23/1/11 31/1/11 
f 31/1/11 34/7/11 10/7/11 
f 23/1/12 26/2/12 32/2/12 
f 32/2/12 31/1/12 23/1/12 
f 39/2/3 40/8/3 41/8/3 
f 41/8/3 42/2/3 39/2/3 
f 15/8/1 10/7/1 34/7/1 
f 34/7/1 33/8/1 15/8/1 
f 16/8/13 25/3/13 36/3/13 
f 36/3/13 35/8/13 16/8/13 
f 25/3/14 29/3/14 37/3/14 
f 37/3/14 36/3/14 25/3/14 
f 29/3/6 28/8/6 38/8/6 
f 38/8/6 37/3/6 29/3/6 
f 28/8/10 16/8/10 35/8/10 
f 35/8/10 38/8/10 28/8/10 
f 26/2/15 15/8/15 40/8/15 
f 40/8/15 39/2/15 26/2/15 
f 15/8/1 33/8/1 41/8/1 
f 41/8/1 40/8/1 15/8/1 
f 33/8/4 32/2/4 42/2/4 
f 42/2/4 41/8/4 33/8/4 
f 32/2/16 26/2/16 39/2/16 
f 39/2/16 42/2/16 32/2/16 
s 8
f 43/1/1 44/2/1 20/8/1 
f 20/8/1 19/7/1 43/1/1 
s off
f 12/7/5 11/1/5 43/1/5 
f 43/1/5 19/7/5 12/7/5 
f 11/1/4 14/2/4 44/2/4 
f 44/2/4 43/1/4 11/1/4 
f 14/2/7 17/8/7 20/8/7 
f 20/8/7 44/2/7 14/2/7 
f 17/8/7 18/3/7 21/3/7 
f 21/3/7 20/8/7 17/8/7 
f 18/3/6 13/4/6 22/4/6 
f 22/4/6 21/3/6 18/3/6 
f 13/4/5 12/7/5 19/7/5 
f 19/7/5 22/4/5 13/4/5 
# 80 faces

