# 3ds Max Wavefront OBJ Exporter v0.99 - (c)2007 guruware
# 斐膘腔恅璃:03.06.2025 19:37:41

mtllib Zombie.mtl

#
# object Box001
#

v  -12.8552 69.8663 11.5370
v  -12.8552 69.8663 -11.5370
v  12.8552 69.8663 -11.5370
v  12.8552 69.8663 11.5370
v  -12.8552 95.5767 11.5370
v  12.8552 95.5767 11.5370
v  12.8552 95.5767 -11.5370
v  -12.8552 95.5767 -11.5370
v  -14.6080 57.8743 -6.8674
v  14.6197 57.8743 -6.8674
v  14.6197 32.1136 -6.8674
v  0.0058 32.1136 -6.8674
v  -14.6080 32.1136 -6.8674
v  14.6197 32.1136 6.5480
v  14.6197 57.8743 6.5480
v  -14.6080 57.8743 6.5480
v  0.0058 32.1136 6.5480
v  -14.6080 32.1136 6.5480
v  0.0058 0.0255 -6.8674
v  0.0058 0.0255 6.5480
v  -14.6080 0.0255 6.5480
v  -14.6080 0.0255 -6.8674
v  14.6197 69.8663 -6.8674
v  -14.6080 69.8663 -6.8674
v  -14.6080 69.8663 6.5480
v  14.6197 69.8663 6.5480
v  -26.5862 57.8743 -6.8674
v  -26.5862 57.8743 6.5480
v  -26.5862 69.8664 6.5480
v  -26.5862 69.8664 -6.8674
v  26.5979 69.8664 -6.8674
v  26.5979 69.8664 6.5480
v  26.5979 57.8743 6.5480
v  26.5979 57.8743 -6.8674
v  -14.6080 57.8743 37.1313
v  -14.6080 69.8663 37.1313
v  -26.5862 69.8663 37.1313
v  -26.5862 57.8743 37.1313
v  14.6197 69.8663 37.1313
v  14.6197 57.8743 37.1313
v  26.5979 57.8743 37.1313
v  26.5979 69.8663 37.1313
v  14.6197 0.0255 -6.8674
v  14.6197 0.0255 6.5480
# 44 vertices

vn 0.0000 -1.0000 -0.0000
vn 0.0000 1.0000 -0.0000
vn 0.0000 0.0000 1.0000
vn 1.0000 0.0000 -0.0000
vn 0.0000 0.0000 -1.0000
vn -1.0000 0.0000 -0.0000
vn 0.0000 -0.0000 1.0000
vn 1.0000 0.0000 0.0000
vn -1.0000 0.0000 0.0000
vn -0.0000 -1.0000 -0.0000
vn -0.0000 0.0000 -1.0000
vn -0.0000 1.0000 -0.0000
vn 1.0000 -0.0000 -0.0000
vn 0.0000 1.0000 0.0000
vn -1.0000 -0.0000 -0.0000
vn -0.0000 1.0000 0.0000
# 16 vertex normals

vt 0.7885 0.1709 0.0000
vt 0.7885 0.0005 0.0000
vt 0.9589 0.0005 0.0000
vt 0.9589 0.1709 0.0000
vt 0.5994 0.7373 0.0000
vt 0.4290 0.7373 0.0000
vt 0.4290 0.5669 0.0000
vt 0.5994 0.5669 0.0000
vt 0.1758 0.0005 0.0000
vt 0.3462 0.0005 0.0000
vt 0.3462 0.1709 0.0000
vt 0.1758 0.1709 0.0000
vt 0.5165 0.0005 0.0000
vt 0.5165 0.1709 0.0000
vt 0.6869 0.0005 0.0000
vt 0.6869 0.1709 0.0000
vt 0.0054 0.0005 0.0000
vt 0.0054 0.1709 0.0000
vt 0.2932 0.3436 0.0000
vt 0.0996 0.3436 0.0000
vt 0.0996 0.1729 0.0000
vt 0.1964 0.1729 0.0000
vt 0.2932 0.1729 0.0000
vt 0.5860 0.1729 0.0000
vt 0.5860 0.3436 0.0000
vt 0.3923 0.3436 0.0000
vt 0.4891 0.1729 0.0000
vt 0.3923 0.1729 0.0000
vt 0.9896 0.5283 0.0000
vt 0.9896 0.6274 0.0000
vt 0.8928 0.6274 0.0000
vt 0.8928 0.5283 0.0000
vt 0.0005 0.3436 0.0000
vt 0.0005 0.1729 0.0000
vt 0.0996 0.4231 0.0000
vt 0.2932 0.4231 0.0000
vt 0.2932 0.5221 0.0000
vt 0.0996 0.5221 0.0000
vt 0.4142 0.9080 0.0000
vt 0.5133 0.9080 0.0000
vt 0.5133 0.9874 0.0000
vt 0.4142 0.9874 0.0000
vt 0.5860 0.4231 0.0000
vt 0.3923 0.4231 0.0000
vt 0.4239 0.6026 0.0000
vt 0.3248 0.6026 0.0000
vt 0.3248 0.5231 0.0000
vt 0.4239 0.5231 0.0000
vt 0.0054 0.8132 0.0000
vt 0.0849 0.8132 0.0000
vt 0.0849 0.8925 0.0000
vt 0.0054 0.8925 0.0000
vt 0.3107 0.8132 0.0000
vt 0.4098 0.8132 0.0000
vt 0.4098 0.8925 0.0000
vt 0.3107 0.8925 0.0000
vt 0.7885 0.3206 0.0000
vt 0.8680 0.3206 0.0000
vt 0.8680 0.4000 0.0000
vt 0.7885 0.4000 0.0000
vt 0.4142 0.8286 0.0000
vt 0.5133 0.8286 0.0000
vt 0.4239 0.4438 0.0000
vt 0.5033 0.4438 0.0000
vt 0.5033 0.5231 0.0000
vt 0.0054 0.9067 0.0000
vt 0.1045 0.9067 0.0000
vt 0.1045 0.9861 0.0000
vt 0.0054 0.9861 0.0000
vt 0.3303 0.9067 0.0000
vt 0.4098 0.9067 0.0000
vt 0.4098 0.9861 0.0000
vt 0.3303 0.9861 0.0000
vt 0.2272 0.7222 0.0000
vt 0.3303 0.7202 0.0000
vt 0.3303 0.7996 0.0000
vt 0.2312 0.7996 0.0000
vt 0.5133 0.7491 0.0000
vt 0.7391 0.7491 0.0000
vt 0.7391 0.8286 0.0000
vt 0.7391 0.9080 0.0000
vt 0.7391 0.9874 0.0000
vt 0.2272 0.6428 0.0000
vt 0.0014 0.7222 0.0000
vt 0.0014 0.6428 0.0000
vt 0.0054 0.7996 0.0000
vt 0.0990 0.6026 0.0000
vt 0.0990 0.5231 0.0000
vt 0.7869 0.2131 0.0000
vt 0.7869 0.3122 0.0000
vt 0.6900 0.3122 0.0000
vt 0.6900 0.2131 0.0000
vt 0.6900 0.0005 0.0000
vt 0.7869 0.0005 0.0000
vt 0.9995 0.2131 0.0000
vt 0.9995 0.3122 0.0000
vt 0.7869 0.5248 0.0000
vt 0.6900 0.5248 0.0000
vt 0.9896 0.8400 0.0000
vt 0.8928 0.8400 0.0000
vt 0.6802 0.6274 0.0000
vt 0.6802 0.5283 0.0000
vt 0.8928 0.3157 0.0000
vt 0.9896 0.3157 0.0000
# 104 texture coords

o Box001
g Box001
usemtl Material__27
s 2
f 1/1/1 2/2/1 3/3/1 
f 3/3/1 4/4/1 1/1/1 
s 4
f 5/5/2 6/6/2 7/7/2 
f 7/7/2 8/8/2 5/5/2 
s 8
f 1/9/3 4/10/3 6/11/3 
f 6/11/3 5/12/3 1/9/3 
s 16
f 4/10/4 3/13/4 7/14/4 
f 7/14/4 6/11/4 4/10/4 
s 32
f 3/13/5 2/15/5 8/16/5 
f 8/16/5 7/14/5 3/13/5 
s 64
f 2/17/6 1/9/6 5/12/6 
f 5/12/6 8/18/6 2/17/6 
s 2
f 9/19/5 10/20/5 11/21/5 
f 9/19/5 11/21/5 12/22/5 
f 13/23/5 9/19/5 12/22/5 
s 4
f 14/24/3 15/25/7 16/26/7 
f 17/27/3 14/24/3 16/26/7 
f 18/28/3 17/27/3 16/26/7 
s 8
f 19/29/1 20/30/1 21/31/1 
f 21/31/1 22/32/1 19/29/1 
s 16
f 10/20/8 15/33/8 14/34/8 
f 14/34/8 11/21/4 10/20/8 
s 32
f 23/35/2 24/36/2 25/37/2 
f 25/37/2 26/38/2 23/35/2 
s 64
f 27/39/6 28/40/6 29/41/6 
f 29/41/6 30/42/6 27/39/6 
s 2
f 24/36/5 23/35/5 10/20/5 
f 10/20/5 9/19/5 24/36/5 
s 4
f 26/43/7 25/44/7 16/26/7 
f 16/26/7 15/25/7 26/43/7 
s 16
f 31/45/4 32/46/4 33/47/4 
f 33/47/4 34/48/4 31/45/4 
s 64
f 13/23/9 18/28/6 16/26/9 
f 16/26/9 9/19/9 13/23/9 
s off
f 35/49/3 36/50/3 37/51/3 
f 37/51/3 38/52/3 35/49/3 
f 25/53/2 24/54/2 30/55/2 
f 30/55/2 29/56/2 25/53/2 
f 24/57/5 9/58/5 27/59/5 
f 27/59/5 30/60/5 24/57/5 
f 9/61/10 16/62/10 28/40/10 
f 28/40/10 27/39/10 9/61/10 
f 10/63/11 23/64/11 31/65/11 
f 31/65/11 34/48/11 10/63/11 
f 23/66/12 26/67/12 32/68/12 
f 32/68/12 31/69/12 23/66/12 
f 39/70/3 40/71/3 41/72/3 
f 41/72/3 42/73/3 39/70/3 
f 15/74/1 10/75/1 34/76/1 
f 34/76/1 33/77/1 15/74/1 
f 16/62/13 25/78/13 36/79/13 
f 36/79/13 35/80/13 16/62/13 
f 25/53/14 29/56/14 37/51/14 
f 37/51/14 36/50/14 25/53/14 
f 29/41/6 28/40/6 38/81/6 
f 38/81/6 37/82/6 29/41/6 
f 28/40/10 16/62/10 35/80/10 
f 35/80/10 38/81/10 28/40/10 
f 26/83/15 15/74/15 40/84/15 
f 40/84/15 39/85/15 26/83/15 
f 15/74/1 33/77/1 41/86/1 
f 41/86/1 40/84/1 15/74/1 
f 33/47/4 32/46/4 42/87/4 
f 42/87/4 41/88/4 33/47/4 
f 32/68/16 26/67/16 39/70/16 
f 39/70/16 42/73/16 32/68/16 
s 8
f 43/89/1 44/90/1 20/91/1 
f 20/91/1 19/92/1 43/89/1 
s off
f 12/93/5 11/94/5 43/89/5 
f 43/89/5 19/92/5 12/93/5 
f 11/95/4 14/96/4 44/90/4 
f 44/90/4 43/89/4 11/95/4 
f 14/97/7 17/98/7 20/91/7 
f 20/91/7 44/90/7 14/97/7 
f 17/99/7 18/100/7 21/31/7 
f 21/31/7 20/30/7 17/99/7 
f 18/101/6 13/102/6 22/32/6 
f 22/32/6 21/31/6 18/101/6 
f 13/103/5 12/104/5 19/29/5 
f 19/29/5 22/32/5 13/103/5 
# 80 faces

